# 3ds Max Wavefront OBJ Exporter v0.97b - (c)2007 guruware
# File Created: 25.11.2015 15:59:18

mtllib gizmo.mtl

#
# object z_line
#

v  0.0000 0.0000 0.0000
v  0.0707 0.0707 0.0000
v  0.1000 0.0000 0.0000
v  -0.0000 0.1000 0.0000
v  -0.0707 0.0707 0.0000
v  -0.1000 -0.0000 0.0000
v  -0.0707 -0.0707 0.0000
v  0.0000 -0.1000 0.0000
v  0.0707 -0.0707 0.0000
v  0.0707 0.0707 1.0000
v  0.1000 0.0000 1.0000
v  -0.0000 0.1000 1.0000
v  -0.0707 0.0707 1.0000
v  -0.1000 -0.0000 1.0000
v  -0.0707 -0.0707 1.0000
v  0.0000 -0.1000 1.0000
v  0.0707 -0.0707 1.0000
v  0.0000 0.0000 1.0000
# 18 vertices

vn 0.0000 0.0000 -1.0000
vn 1.0000 0.0000 0.0000
vn 0.7071 0.7071 0.0000
vn 1.0000 -0.0000 0.0000
vn -0.0000 1.0000 0.0000
vn -0.7071 0.7071 0.0000
vn -1.0000 -0.0000 0.0000
vn -0.7071 -0.7071 0.0000
vn -0.0000 -1.0000 0.0000
vn 0.0000 -1.0000 0.0000
vn 0.7071 -0.7071 0.0000
vn 0.0000 0.0000 1.0000
# 12 vertex normals

g z_line
usemtl wire_008008136
s 1
f 1//1 2//1 3//1 
f 1//1 4//1 2//1 
f 1//1 5//1 4//1 
f 1//1 6//1 5//1 
f 1//1 7//1 6//1 
f 1//1 8//1 7//1 
f 1//1 9//1 8//1 
f 1//1 3//1 9//1 
s 8
f 3//2 10//3 11//4 
f 3//2 2//3 10//3 
f 2//3 12//5 10//3 
f 2//3 4//5 12//5 
f 4//5 13//6 12//5 
f 4//5 5//6 13//6 
f 5//6 14//7 13//6 
f 5//6 6//7 14//7 
f 6//7 15//8 14//7 
f 6//7 7//8 15//8 
f 7//8 16//9 15//8 
f 7//8 8//10 16//9 
f 8//10 17//11 16//9 
f 8//10 9//11 17//11 
f 9//11 11//4 17//11 
f 9//11 3//2 11//4 
s 1
f 18//12 11//12 10//12 
f 18//12 10//12 12//12 
f 18//12 12//12 13//12 
f 18//12 13//12 14//12 
f 18//12 14//12 15//12 
f 18//12 15//12 16//12 
f 18//12 16//12 17//12 
f 18//12 17//12 11//12 
# 32 faces

#
# object x_line
#

v  0.0000 0.0000 0.0000
v  0.0000 0.0707 0.0707
v  -0.0000 0.1000 0.0000
v  0.0000 -0.0000 0.1000
v  0.0000 -0.0707 0.0707
v  0.0000 -0.1000 -0.0000
v  -0.0000 -0.0707 -0.0707
v  -0.0000 0.0000 -0.1000
v  -0.0000 0.0707 -0.0707
v  1.0000 0.0707 0.0707
v  1.0000 0.1000 -0.0000
v  1.0000 0.0000 0.1000
v  1.0000 -0.0707 0.0707
v  1.0000 -0.1000 -0.0000
v  1.0000 -0.0707 -0.0707
v  1.0000 0.0000 -0.1000
v  1.0000 0.0707 -0.0707
v  1.0000 0.0000 -0.0000
# 18 vertices

vn -1.0000 -0.0000 0.0000
vn -0.0000 1.0000 0.0000
vn 0.0000 0.7071 0.7071
vn -0.0000 1.0000 -0.0000
vn 0.0000 -0.0000 1.0000
vn 0.0000 -0.7071 0.7071
vn 0.0000 -1.0000 -0.0000
vn 0.0000 -0.7071 -0.7071
vn -0.0000 -0.7071 -0.7071
vn -0.0000 -0.0000 -1.0000
vn -0.0000 0.0000 -1.0000
vn -0.0000 0.7071 -0.7071
vn 1.0000 0.0000 -0.0000
# 13 vertex normals

g x_line
usemtl wire_135006006
s 1
f 19//13 20//13 21//13 
f 19//13 22//13 20//13 
f 19//13 23//13 22//13 
f 19//13 24//13 23//13 
f 19//13 25//13 24//13 
f 19//13 26//13 25//13 
f 19//13 27//13 26//13 
f 19//13 21//13 27//13 
s 8
f 21//14 28//15 29//16 
f 21//14 20//15 28//15 
f 20//15 30//17 28//15 
f 20//15 22//17 30//17 
f 22//17 31//18 30//17 
f 22//17 23//18 31//18 
f 23//18 32//19 31//18 
f 23//18 24//19 32//19 
f 24//19 33//20 32//19 
f 24//19 25//21 33//20 
f 25//21 34//22 33//20 
f 25//21 26//23 34//22 
f 26//23 35//24 34//22 
f 26//23 27//24 35//24 
f 27//24 29//16 35//24 
f 27//24 21//14 29//16 
s 1
f 36//25 29//25 28//25 
f 36//25 28//25 30//25 
f 36//25 30//25 31//25 
f 36//25 31//25 32//25 
f 36//25 32//25 33//25 
f 36//25 33//25 34//25 
f 36//25 34//25 35//25 
f 36//25 35//25 29//25 
# 32 faces

#
# object y_line
#

v  0.0000 0.0000 0.0000
v  -0.0707 -0.0000 0.0707
v  -0.1000 -0.0000 0.0000
v  0.0000 0.0000 0.1000
v  0.0707 0.0000 0.0707
v  0.1000 0.0000 -0.0000
v  0.0707 0.0000 -0.0707
v  -0.0000 -0.0000 -0.1000
v  -0.0707 -0.0000 -0.0707
v  -0.0707 1.0000 0.0707
v  -0.1000 1.0000 -0.0000
v  -0.0000 1.0000 0.1000
v  0.0707 1.0000 0.0707
v  0.1000 1.0000 -0.0000
v  0.0707 1.0000 -0.0707
v  -0.0000 1.0000 -0.1000
v  -0.0707 1.0000 -0.0707
v  -0.0000 1.0000 -0.0000
# 18 vertices

vn 0.0000 -1.0000 0.0000
vn -1.0000 -0.0000 0.0000
vn -0.7071 -0.0000 0.7071
vn -1.0000 -0.0000 -0.0000
vn 0.0000 0.0000 1.0000
vn 0.7071 0.0000 0.7071
vn 1.0000 0.0000 -0.0000
vn 0.7071 0.0000 -0.7071
vn 0.0000 -0.0000 -1.0000
vn -0.0000 -0.0000 -1.0000
vn -0.7071 -0.0000 -0.7071
vn -0.0000 1.0000 -0.0000
# 12 vertex normals

g y_line
usemtl wire_006135006
s 1
f 37//26 38//26 39//26 
f 37//26 40//26 38//26 
f 37//26 41//26 40//26 
f 37//26 42//26 41//26 
f 37//26 43//26 42//26 
f 37//26 44//26 43//26 
f 37//26 45//26 44//26 
f 37//26 39//26 45//26 
s 8
f 39//27 46//28 47//29 
f 39//27 38//28 46//28 
f 38//28 48//30 46//28 
f 38//28 40//30 48//30 
f 40//30 49//31 48//30 
f 40//30 41//31 49//31 
f 41//31 50//32 49//31 
f 41//31 42//32 50//32 
f 42//32 51//33 50//32 
f 42//32 43//33 51//33 
f 43//33 52//34 51//33 
f 43//33 44//35 52//34 
f 44//35 53//36 52//34 
f 44//35 45//36 53//36 
f 45//36 47//29 53//36 
f 45//36 39//27 47//29 
s 1
f 54//37 47//37 46//37 
f 54//37 46//37 48//37 
f 54//37 48//37 49//37 
f 54//37 49//37 50//37 
f 54//37 50//37 51//37 
f 54//37 51//37 52//37 
f 54//37 52//37 53//37 
f 54//37 53//37 47//37 
# 32 faces

#
# object z_arrow
#

v  0.0000 0.0000 1.2000
v  0.0087 -0.0050 1.2000
v  0.0100 0.0000 1.2000
v  0.0050 -0.0087 1.2000
v  -0.0000 -0.0100 1.2000
v  -0.0050 -0.0087 1.2000
v  -0.0087 -0.0050 1.2000
v  -0.0100 -0.0000 1.2000
v  -0.0087 0.0050 1.2000
v  -0.0050 0.0087 1.2000
v  -0.0000 0.0100 1.2000
v  0.0050 0.0087 1.2000
v  0.0087 0.0050 1.2000
v  0.0325 -0.0187 1.1500
v  0.0375 0.0000 1.1500
v  0.0187 -0.0325 1.1500
v  -0.0000 -0.0375 1.1500
v  -0.0188 -0.0325 1.1500
v  -0.0325 -0.0187 1.1500
v  -0.0375 0.0000 1.1500
v  -0.0325 0.0187 1.1500
v  -0.0188 0.0325 1.1500
v  -0.0000 0.0375 1.1500
v  0.0187 0.0325 1.1500
v  0.0325 0.0188 1.1500
v  0.0563 -0.0325 1.1000
v  0.0650 0.0000 1.1000
v  0.0325 -0.0563 1.1000
v  -0.0000 -0.0650 1.1000
v  -0.0325 -0.0563 1.1000
v  -0.0563 -0.0325 1.1000
v  -0.0650 0.0000 1.1000
v  -0.0563 0.0325 1.1000
v  -0.0325 0.0563 1.1000
v  -0.0000 0.0650 1.1000
v  0.0325 0.0563 1.1000
v  0.0563 0.0325 1.1000
v  0.0801 -0.0462 1.0500
v  0.0925 0.0000 1.0500
v  0.0462 -0.0801 1.0500
v  -0.0000 -0.0925 1.0500
v  -0.0463 -0.0801 1.0500
v  -0.0801 -0.0462 1.0500
v  -0.0925 0.0000 1.0500
v  -0.0801 0.0463 1.0500
v  -0.0463 0.0801 1.0500
v  -0.0000 0.0925 1.0500
v  0.0462 0.0801 1.0500
v  0.0801 0.0463 1.0500
v  0.1039 -0.0600 1.0000
v  0.1200 0.0000 1.0000
v  0.0600 -0.1039 1.0000
v  -0.0000 -0.1200 1.0000
v  -0.0600 -0.1039 1.0000
v  -0.1039 -0.0600 1.0000
v  -0.1200 0.0000 1.0000
v  -0.1039 0.0600 1.0000
v  -0.0600 0.1039 1.0000
v  -0.0000 0.1200 1.0000
v  0.0600 0.1039 1.0000
v  0.1039 0.0600 1.0000
v  0.0000 0.0000 1.0000
# 62 vertices

vn 0.0000 -0.0000 1.0000
vn 0.8762 0.0000 0.4819
vn 0.7588 -0.4381 0.4819
vn 0.4381 -0.7588 0.4819
vn -0.0000 -0.8762 0.4819
vn 0.0000 -0.8762 0.4819
vn -0.4381 -0.7588 0.4819
vn -0.7588 -0.4381 0.4819
vn -0.8762 -0.0000 0.4819
vn -0.7588 0.4381 0.4819
vn -0.4381 0.7588 0.4819
vn -0.0000 0.8762 0.4819
vn 0.4381 0.7588 0.4819
vn 0.7588 0.4381 0.4819
vn 0.0000 0.0000 -1.0000
# 15 vertex normals

g z_arrow
usemtl wire_008008136
s 1
f 55//38 56//38 57//38 
f 55//38 58//38 56//38 
f 55//38 59//38 58//38 
f 55//38 60//38 59//38 
f 55//38 61//38 60//38 
f 55//38 62//38 61//38 
f 55//38 63//38 62//38 
f 55//38 64//38 63//38 
f 55//38 65//38 64//38 
f 55//38 66//38 65//38 
f 55//38 67//38 66//38 
f 55//38 57//38 67//38 
s 8
f 57//39 68//40 69//39 
f 57//39 56//40 68//40 
f 56//40 70//41 68//40 
f 56//40 58//41 70//41 
f 58//41 71//42 70//41 
f 58//41 59//43 71//42 
f 59//43 72//44 71//42 
f 59//43 60//44 72//44 
f 60//44 73//45 72//44 
f 60//44 61//45 73//45 
f 61//45 74//46 73//45 
f 61//45 62//46 74//46 
f 62//46 75//47 74//46 
f 62//46 63//47 75//47 
f 63//47 76//48 75//47 
f 63//47 64//48 76//48 
f 64//48 77//49 76//48 
f 64//48 65//49 77//49 
f 65//49 78//50 77//49 
f 65//49 66//50 78//50 
f 66//50 79//51 78//50 
f 66//50 67//51 79//51 
f 67//51 69//39 79//51 
f 67//51 57//39 69//39 
f 69//39 80//40 81//39 
f 69//39 68//40 80//40 
f 68//40 82//41 80//40 
f 68//40 70//41 82//41 
f 70//41 83//42 82//41 
f 70//41 71//42 83//42 
f 71//42 84//44 83//42 
f 71//42 72//44 84//44 
f 72//44 85//45 84//44 
f 72//44 73//45 85//45 
f 73//45 86//46 85//45 
f 73//45 74//46 86//46 
f 74//46 87//47 86//46 
f 74//46 75//47 87//47 
f 75//47 88//48 87//47 
f 75//47 76//48 88//48 
f 76//48 89//49 88//48 
f 76//48 77//49 89//49 
f 77//49 90//50 89//49 
f 77//49 78//50 90//50 
f 78//50 91//51 90//50 
f 78//50 79//51 91//51 
f 79//51 81//39 91//51 
f 79//51 69//39 81//39 
f 81//39 92//40 93//39 
f 81//39 80//40 92//40 
f 80//40 94//41 92//40 
f 80//40 82//41 94//41 
f 82//41 95//42 94//41 
f 82//41 83//42 95//42 
f 83//42 96//44 95//42 
f 83//42 84//44 96//44 
f 84//44 97//45 96//44 
f 84//44 85//45 97//45 
f 85//45 98//46 97//45 
f 85//45 86//46 98//46 
f 86//46 99//47 98//46 
f 86//46 87//47 99//47 
f 87//47 100//48 99//47 
f 87//47 88//48 100//48 
f 88//48 101//49 100//48 
f 88//48 89//49 101//49 
f 89//49 102//50 101//49 
f 89//49 90//50 102//50 
f 90//50 103//51 102//50 
f 90//50 91//51 103//51 
f 91//51 93//39 103//51 
f 91//51 81//39 93//39 
f 93//39 104//40 105//39 
f 93//39 92//40 104//40 
f 92//40 106//41 104//40 
f 92//40 94//41 106//41 
f 94//41 107//42 106//41 
f 94//41 95//42 107//42 
f 95//42 108//44 107//42 
f 95//42 96//44 108//44 
f 96//44 109//45 108//44 
f 96//44 97//45 109//45 
f 97//45 110//46 109//45 
f 97//45 98//46 110//46 
f 98//46 111//47 110//46 
f 98//46 99//47 111//47 
f 99//47 112//48 111//47 
f 99//47 100//48 112//48 
f 100//48 113//49 112//48 
f 100//48 101//49 113//49 
f 101//49 114//50 113//49 
f 101//49 102//50 114//50 
f 102//50 115//51 114//50 
f 102//50 103//51 115//51 
f 103//51 105//39 115//51 
f 103//51 93//39 105//39 
s 1
f 116//52 105//52 104//52 
f 116//52 104//52 106//52 
f 116//52 106//52 107//52 
f 116//52 107//52 108//52 
f 116//52 108//52 109//52 
f 116//52 109//52 110//52 
f 116//52 110//52 111//52 
f 116//52 111//52 112//52 
f 116//52 112//52 113//52 
f 116//52 113//52 114//52 
f 116//52 114//52 115//52 
f 116//52 115//52 105//52 
# 120 faces

#
# object x_arrow
#

v  1.2000 0.0000 0.0000
v  1.2000 0.0050 0.0087
v  1.2000 0.0000 0.0100
v  1.2000 0.0087 0.0050
v  1.2000 0.0100 -0.0000
v  1.2000 0.0087 -0.0050
v  1.2000 0.0050 -0.0087
v  1.2000 0.0000 -0.0100
v  1.2000 -0.0050 -0.0087
v  1.2000 -0.0087 -0.0050
v  1.2000 -0.0100 -0.0000
v  1.2000 -0.0087 0.0050
v  1.2000 -0.0050 0.0087
v  1.1500 0.0187 0.0325
v  1.1500 0.0000 0.0375
v  1.1500 0.0325 0.0187
v  1.1500 0.0375 -0.0000
v  1.1500 0.0325 -0.0188
v  1.1500 0.0188 -0.0325
v  1.1500 0.0000 -0.0375
v  1.1500 -0.0187 -0.0325
v  1.1500 -0.0325 -0.0188
v  1.1500 -0.0375 -0.0000
v  1.1500 -0.0325 0.0187
v  1.1500 -0.0188 0.0325
v  1.1000 0.0325 0.0563
v  1.1000 0.0000 0.0650
v  1.1000 0.0563 0.0325
v  1.1000 0.0650 -0.0000
v  1.1000 0.0563 -0.0325
v  1.1000 0.0325 -0.0563
v  1.1000 0.0000 -0.0650
v  1.1000 -0.0325 -0.0563
v  1.1000 -0.0563 -0.0325
v  1.1000 -0.0650 -0.0000
v  1.1000 -0.0563 0.0325
v  1.1000 -0.0325 0.0563
v  1.0500 0.0462 0.0801
v  1.0500 0.0000 0.0925
v  1.0500 0.0801 0.0462
v  1.0500 0.0925 -0.0000
v  1.0500 0.0801 -0.0463
v  1.0500 0.0463 -0.0801
v  1.0500 0.0000 -0.0925
v  1.0500 -0.0462 -0.0801
v  1.0500 -0.0801 -0.0463
v  1.0500 -0.0925 -0.0000
v  1.0500 -0.0801 0.0462
v  1.0500 -0.0463 0.0801
v  1.0000 0.0600 0.1039
v  1.0000 0.0000 0.1200
v  1.0000 0.1039 0.0600
v  1.0000 0.1200 -0.0000
v  1.0000 0.1039 -0.0600
v  1.0000 0.0600 -0.1039
v  1.0000 0.0000 -0.1200
v  1.0000 -0.0600 -0.1039
v  1.0000 -0.1039 -0.0600
v  1.0000 -0.1200 -0.0000
v  1.0000 -0.1039 0.0600
v  1.0000 -0.0600 0.1039
v  1.0000 0.0000 -0.0000
# 62 vertices

vn 1.0000 0.0000 0.0000
vn 0.4819 -0.0000 0.8762
vn 0.4819 0.4381 0.7588
vn 0.4819 0.7588 0.4381
vn 0.4819 0.8762 -0.0000
vn 0.4819 0.8762 0.0000
vn 0.4819 0.7588 -0.4381
vn 0.4819 0.4381 -0.7588
vn 0.4819 0.0000 -0.8762
vn 0.4819 -0.4381 -0.7588
vn 0.4819 -0.7588 -0.4381
vn 0.4819 -0.8762 -0.0000
vn 0.4819 -0.7588 0.4381
vn 0.4819 -0.4381 0.7588
vn -1.0000 0.0000 -0.0000
# 15 vertex normals

g x_arrow
usemtl wire_135006006
s 1
f 117//53 118//53 119//53 
f 117//53 120//53 118//53 
f 117//53 121//53 120//53 
f 117//53 122//53 121//53 
f 117//53 123//53 122//53 
f 117//53 124//53 123//53 
f 117//53 125//53 124//53 
f 117//53 126//53 125//53 
f 117//53 127//53 126//53 
f 117//53 128//53 127//53 
f 117//53 129//53 128//53 
f 117//53 119//53 129//53 
s 8
f 119//54 130//55 131//54 
f 119//54 118//55 130//55 
f 118//55 132//56 130//55 
f 118//55 120//56 132//56 
f 120//56 133//57 132//56 
f 120//56 121//58 133//57 
f 121//58 134//59 133//57 
f 121//58 122//59 134//59 
f 122//59 135//60 134//59 
f 122//59 123//60 135//60 
f 123//60 136//61 135//60 
f 123//60 124//61 136//61 
f 124//61 137//62 136//61 
f 124//61 125//62 137//62 
f 125//62 138//63 137//62 
f 125//62 126//63 138//63 
f 126//63 139//64 138//63 
f 126//63 127//64 139//64 
f 127//64 140//65 139//64 
f 127//64 128//65 140//65 
f 128//65 141//66 140//65 
f 128//65 129//66 141//66 
f 129//66 131//54 141//66 
f 129//66 119//54 131//54 
f 131//54 142//55 143//54 
f 131//54 130//55 142//55 
f 130//55 144//56 142//55 
f 130//55 132//56 144//56 
f 132//56 145//57 144//56 
f 132//56 133//57 145//57 
f 133//57 146//59 145//57 
f 133//57 134//59 146//59 
f 134//59 147//60 146//59 
f 134//59 135//60 147//60 
f 135//60 148//61 147//60 
f 135//60 136//61 148//61 
f 136//61 149//62 148//61 
f 136//61 137//62 149//62 
f 137//62 150//63 149//62 
f 137//62 138//63 150//63 
f 138//63 151//64 150//63 
f 138//63 139//64 151//64 
f 139//64 152//65 151//64 
f 139//64 140//65 152//65 
f 140//65 153//66 152//65 
f 140//65 141//66 153//66 
f 141//66 143//54 153//66 
f 141//66 131//54 143//54 
f 143//54 154//55 155//54 
f 143//54 142//55 154//55 
f 142//55 156//56 154//55 
f 142//55 144//56 156//56 
f 144//56 157//58 156//56 
f 144//56 145//57 157//58 
f 145//57 158//59 157//58 
f 145//57 146//59 158//59 
f 146//59 159//60 158//59 
f 146//59 147//60 159//60 
f 147//60 160//61 159//60 
f 147//60 148//61 160//61 
f 148//61 161//62 160//61 
f 148//61 149//62 161//62 
f 149//62 162//63 161//62 
f 149//62 150//63 162//63 
f 150//63 163//64 162//63 
f 150//63 151//64 163//64 
f 151//64 164//65 163//64 
f 151//64 152//65 164//65 
f 152//65 165//66 164//65 
f 152//65 153//66 165//66 
f 153//66 155//54 165//66 
f 153//66 143//54 155//54 
f 155//54 166//55 167//54 
f 155//54 154//55 166//55 
f 154//55 168//56 166//55 
f 154//55 156//56 168//56 
f 156//56 169//57 168//56 
f 156//56 157//58 169//57 
f 157//58 170//59 169//57 
f 157//58 158//59 170//59 
f 158//59 171//60 170//59 
f 158//59 159//60 171//60 
f 159//60 172//61 171//60 
f 159//60 160//61 172//61 
f 160//61 173//62 172//61 
f 160//61 161//62 173//62 
f 161//62 174//63 173//62 
f 161//62 162//63 174//63 
f 162//63 175//64 174//63 
f 162//63 163//64 175//64 
f 163//64 176//65 175//64 
f 163//64 164//65 176//65 
f 164//65 177//66 176//65 
f 164//65 165//66 177//66 
f 165//66 167//54 177//66 
f 165//66 155//54 167//54 
s 1
f 178//67 167//67 166//67 
f 178//67 166//67 168//67 
f 178//67 168//67 169//67 
f 178//67 169//67 170//67 
f 178//67 170//67 171//67 
f 178//67 171//67 172//67 
f 178//67 172//67 173//67 
f 178//67 173//67 174//67 
f 178//67 174//67 175//67 
f 178//67 175//67 176//67 
f 178//67 176//67 177//67 
f 178//67 177//67 167//67 
# 120 faces

#
# object y_arrow
#

v  0.0000 1.2000 0.0000
v  0.0087 1.2000 0.0050
v  0.0100 1.2000 0.0000
v  0.0050 1.2000 0.0087
v  -0.0000 1.2000 0.0100
v  -0.0050 1.2000 0.0087
v  -0.0087 1.2000 0.0050
v  -0.0100 1.2000 0.0000
v  -0.0087 1.2000 -0.0050
v  -0.0050 1.2000 -0.0087
v  -0.0000 1.2000 -0.0100
v  0.0050 1.2000 -0.0087
v  0.0087 1.2000 -0.0050
v  0.0325 1.1500 0.0187
v  0.0375 1.1500 -0.0000
v  0.0187 1.1500 0.0325
v  -0.0000 1.1500 0.0375
v  -0.0188 1.1500 0.0325
v  -0.0325 1.1500 0.0187
v  -0.0375 1.1500 0.0000
v  -0.0325 1.1500 -0.0187
v  -0.0188 1.1500 -0.0325
v  -0.0000 1.1500 -0.0375
v  0.0187 1.1500 -0.0325
v  0.0325 1.1500 -0.0188
v  0.0563 1.1000 0.0325
v  0.0650 1.1000 -0.0000
v  0.0325 1.1000 0.0563
v  -0.0000 1.1000 0.0650
v  -0.0325 1.1000 0.0563
v  -0.0563 1.1000 0.0325
v  -0.0650 1.1000 0.0000
v  -0.0563 1.1000 -0.0325
v  -0.0325 1.1000 -0.0563
v  -0.0000 1.1000 -0.0650
v  0.0325 1.1000 -0.0563
v  0.0563 1.1000 -0.0325
v  0.0801 1.0500 0.0462
v  0.0925 1.0500 -0.0000
v  0.0462 1.0500 0.0801
v  -0.0000 1.0500 0.0925
v  -0.0463 1.0500 0.0801
v  -0.0801 1.0500 0.0462
v  -0.0925 1.0500 0.0000
v  -0.0801 1.0500 -0.0462
v  -0.0463 1.0500 -0.0801
v  -0.0000 1.0500 -0.0925
v  0.0462 1.0500 -0.0801
v  0.0801 1.0500 -0.0463
v  0.1039 1.0000 0.0600
v  0.1200 1.0000 -0.0000
v  0.0600 1.0000 0.1039
v  -0.0000 1.0000 0.1200
v  -0.0600 1.0000 0.1039
v  -0.1039 1.0000 0.0600
v  -0.1200 1.0000 0.0000
v  -0.1039 1.0000 -0.0600
v  -0.0600 1.0000 -0.1039
v  -0.0000 1.0000 -0.1200
v  0.0600 1.0000 -0.1039
v  0.1039 1.0000 -0.0600
v  0.0000 1.0000 -0.0000
# 62 vertices

vn 0.0000 1.0000 0.0000
vn 0.8762 0.4819 -0.0000
vn 0.7588 0.4819 0.4381
vn 0.4381 0.4819 0.7588
vn -0.0000 0.4819 0.8762
vn 0.0000 0.4819 0.8762
vn -0.4381 0.4819 0.7588
vn -0.7588 0.4819 0.4381
vn -0.8762 0.4819 0.0000
vn -0.7588 0.4819 -0.4381
vn -0.4381 0.4819 -0.7588
vn -0.0000 0.4819 -0.8762
vn 0.4381 0.4819 -0.7588
vn 0.7588 0.4819 -0.4381
vn 0.0000 -1.0000 -0.0000
# 15 vertex normals

g y_arrow
usemtl wire_006135006
s 1
f 179//68 180//68 181//68 
f 179//68 182//68 180//68 
f 179//68 183//68 182//68 
f 179//68 184//68 183//68 
f 179//68 185//68 184//68 
f 179//68 186//68 185//68 
f 179//68 187//68 186//68 
f 179//68 188//68 187//68 
f 179//68 189//68 188//68 
f 179//68 190//68 189//68 
f 179//68 191//68 190//68 
f 179//68 181//68 191//68 
s 8
f 181//69 192//70 193//69 
f 181//69 180//70 192//70 
f 180//70 194//71 192//70 
f 180//70 182//71 194//71 
f 182//71 195//72 194//71 
f 182//71 183//73 195//72 
f 183//73 196//74 195//72 
f 183//73 184//74 196//74 
f 184//74 197//75 196//74 
f 184//74 185//75 197//75 
f 185//75 198//76 197//75 
f 185//75 186//76 198//76 
f 186//76 199//77 198//76 
f 186//76 187//77 199//77 
f 187//77 200//78 199//77 
f 187//77 188//78 200//78 
f 188//78 201//79 200//78 
f 188//78 189//79 201//79 
f 189//79 202//80 201//79 
f 189//79 190//80 202//80 
f 190//80 203//81 202//80 
f 190//80 191//81 203//81 
f 191//81 193//69 203//81 
f 191//81 181//69 193//69 
f 193//69 204//70 205//69 
f 193//69 192//70 204//70 
f 192//70 206//71 204//70 
f 192//70 194//71 206//71 
f 194//71 207//72 206//71 
f 194//71 195//72 207//72 
f 195//72 208//74 207//72 
f 195//72 196//74 208//74 
f 196//74 209//75 208//74 
f 196//74 197//75 209//75 
f 197//75 210//76 209//75 
f 197//75 198//76 210//76 
f 198//76 211//77 210//76 
f 198//76 199//77 211//77 
f 199//77 212//78 211//77 
f 199//77 200//78 212//78 
f 200//78 213//79 212//78 
f 200//78 201//79 213//79 
f 201//79 214//80 213//79 
f 201//79 202//80 214//80 
f 202//80 215//81 214//80 
f 202//80 203//81 215//81 
f 203//81 205//69 215//81 
f 203//81 193//69 205//69 
f 205//69 216//70 217//69 
f 205//69 204//70 216//70 
f 204//70 218//71 216//70 
f 204//70 206//71 218//71 
f 206//71 219//72 218//71 
f 206//71 207//72 219//72 
f 207//72 220//74 219//72 
f 207//72 208//74 220//74 
f 208//74 221//75 220//74 
f 208//74 209//75 221//75 
f 209//75 222//76 221//75 
f 209//75 210//76 222//76 
f 210//76 223//77 222//76 
f 210//76 211//77 223//77 
f 211//77 224//78 223//77 
f 211//77 212//78 224//78 
f 212//78 225//79 224//78 
f 212//78 213//79 225//79 
f 213//79 226//80 225//79 
f 213//79 214//80 226//80 
f 214//80 227//81 226//80 
f 214//80 215//81 227//81 
f 215//81 217//69 227//81 
f 215//81 205//69 217//69 
f 217//69 228//70 229//69 
f 217//69 216//70 228//70 
f 216//70 230//71 228//70 
f 216//70 218//71 230//71 
f 218//71 231//72 230//71 
f 218//71 219//72 231//72 
f 219//72 232//74 231//72 
f 219//72 220//74 232//74 
f 220//74 233//75 232//74 
f 220//74 221//75 233//75 
f 221//75 234//76 233//75 
f 221//75 222//76 234//76 
f 222//76 235//77 234//76 
f 222//76 223//77 235//77 
f 223//77 236//78 235//77 
f 223//77 224//78 236//78 
f 224//78 237//79 236//78 
f 224//78 225//79 237//79 
f 225//79 238//80 237//79 
f 225//79 226//80 238//80 
f 226//80 239//81 238//80 
f 226//80 227//81 239//81 
f 227//81 229//69 239//81 
f 227//81 217//69 229//69 
s 1
f 240//82 229//82 228//82 
f 240//82 228//82 230//82 
f 240//82 230//82 231//82 
f 240//82 231//82 232//82 
f 240//82 232//82 233//82 
f 240//82 233//82 234//82 
f 240//82 234//82 235//82 
f 240//82 235//82 236//82 
f 240//82 236//82 237//82 
f 240//82 237//82 238//82 
f 240//82 238//82 239//82 
f 240//82 239//82 229//82 
# 120 faces

#
# object Box001
#

v  -0.1250 -0.1250 -0.1250
v  -0.1250 0.1250 -0.1250
v  0.1250 0.1250 -0.1250
v  0.1250 -0.1250 -0.1250
v  -0.1250 -0.1250 0.1250
v  0.1250 -0.1250 0.1250
v  0.1250 0.1250 0.1250
v  -0.1250 0.1250 0.1250
# 8 vertices

vn 0.0000 0.0000 -1.0000
vn 0.0000 0.0000 1.0000
vn 0.0000 -1.0000 0.0000
vn 1.0000 0.0000 0.0000
vn 0.0000 1.0000 0.0000
vn -1.0000 0.0000 0.0000
# 6 vertex normals

g Box001
usemtl wire_000000000
s 2
f 241//83 242//83 243//83 
f 243//83 244//83 241//83 
s 4
f 245//84 246//84 247//84 
f 247//84 248//84 245//84 
s 8
f 241//85 244//85 246//85 
f 246//85 245//85 241//85 
s 16
f 244//86 243//86 247//86 
f 247//86 246//86 244//86 
s 32
f 243//87 242//87 248//87 
f 248//87 247//87 243//87 
s 64
f 242//88 241//88 245//88 
f 245//88 248//88 242//88 
# 12 faces

